<?xml version="1.0" encoding="utf-8"?>
<!-- Generator: Adobe Illustrator 23.0.0, SVG Export Plug-In . SVG Version: 6.00 Build 0)  -->
<svg version="1.1" id="图层_1" xmlns="http://www.w3.org/2000/svg" xmlns:xlink="http://www.w3.org/1999/xlink" x="0px" y="0px"
	 viewBox="0 0 52 52" style="enable-background:new 0 0 52 52;" xml:space="preserve">
<style type="text/css">
	.st0{clip-path:url(#SVGID_2_);}
	.st1{fill:#DE2910;}
	.st2{fill:#FFDC00;}
	.st3{clip-path:url(#SVGID_4_);}
	.st4{fill:#DB0C1B;}
	.st5{fill:#FFCE0D;}
	.st6{clip-path:url(#SVGID_6_);}
	.st7{fill:#0039A6;}
	.st8{fill:#D52B1E;}
	.st9{fill:#FFFFFF;}
	.st10{clip-path:url(#SVGID_8_);}
	.st11{fill:#002395;}
	.st12{fill:#ED2939;}
	.st13{clip-path:url(#SVGID_10_);}
	.st14{fill:#009246;}
	.st15{fill:#CE2B37;}
	.st16{clip-path:url(#SVGID_12_);}
	.st17{fill:#002377;}
	.st18{fill:#C2121F;}
	.st19{clip-path:url(#SVGID_14_);}
	.st20{fill:#000066;}
	.st21{fill:#CC0000;}
	.st22{clip-path:url(#SVGID_16_);}
	.st23{fill:#233CAF;}
	.st24{fill:#EB0000;}
	.st25{clip-path:url(#SVGID_18_);}
	.st26{fill:#00785E;}
	.st27{fill:#FBD116;}
	.st28{clip-path:url(#SVGID_20_);}
	.st29{fill:#CE1126;}
	.st30{fill:#0038A8;}
	.st31{fill:#FCD116;}
	.st32{clip-path:url(#SVGID_22_);fill:#FFFFFF;}
	.st33{clip-path:url(#SVGID_22_);}
	.st34{clip-path:url(#SVGID_22_);fill:#003478;}
	.st35{clip-path:url(#SVGID_22_);fill:#C60C30;}
	.st36{fill:none;}
	.st37{clip-path:url(#SVGID_26_);}
	.st38{fill:#CC0001;}
	.st39{fill:#010066;}
	.st40{fill:#FFCC00;}
	.st41{clip-path:url(#SVGID_28_);}
	.st42{clip-path:url(#SVGID_30_);}
	.st43{clip-path:url(#SVGID_32_);}
	.st44{fill:#EB2837;}
	.st45{clip-path:url(#SVGID_34_);}
	.st46{fill:#128807;}
	.st47{fill:#FF9933;}
	.st48{fill:#000088;}
	.st49{clip-path:url(#SVGID_36_);}
	.st50{clip-path:url(#SVGID_38_);}
	.st51{clip-path:url(#SVGID_40_);}
	.st52{fill:#EB1E23;}
	.st53{fill:#FFEB00;}
	.st54{clip-path:url(#SVGID_42_);fill:#FE0000;}
	.st55{clip-path:url(#SVGID_42_);fill:#000095;}
	.st56{clip-path:url(#SVGID_42_);fill:#FFFFFF;}
</style>
<g>
	<defs>
		<path id="SVGID_15_" d="M51.14,25.97c0,13.81-11.19,25-25,25c-13.81,0-25-11.19-25-25c0-13.81,11.19-25,25-25
			C39.95,0.97,51.14,12.17,51.14,25.97z"/>
	</defs>
	<clipPath id="SVGID_2_">
		<use xlink:href="#SVGID_15_"  style="overflow:visible;"/>
	</clipPath>
	<g class="st0">
		<g>
			<g>
				<polygon class="st9" points="1.27,5.06 1.69,5.9 2.61,6.03 1.94,6.68 2.1,7.6 1.27,7.17 0.45,7.6 0.6,6.68 -0.06,6.03 0.86,5.9 
									"/>
				<polygon class="st9" points="7.56,5.06 7.98,5.9 8.9,6.03 8.23,6.68 8.39,7.6 7.56,7.17 6.74,7.6 6.89,6.68 6.23,6.03 7.15,5.9 
									"/>
				<polygon class="st9" points="13.85,5.06 14.27,5.9 15.19,6.03 14.52,6.68 14.68,7.6 13.85,7.17 13.03,7.6 13.19,6.68 
					12.52,6.03 13.44,5.9 				"/>
				<polygon class="st9" points="20.14,5.06 20.56,5.9 21.48,6.03 20.81,6.68 20.97,7.6 20.14,7.17 19.32,7.6 19.47,6.68 
					18.81,6.03 19.73,5.9 				"/>
			</g>
			<g>
				<polygon class="st9" points="1.27,10.48 1.69,11.32 2.61,11.45 1.94,12.1 2.1,13.02 1.27,12.59 0.45,13.02 0.6,12.1 
					-0.06,11.45 0.86,11.32 				"/>
				<polygon class="st9" points="7.56,10.48 7.98,11.32 8.9,11.45 8.23,12.1 8.39,13.02 7.56,12.59 6.74,13.02 6.89,12.1 
					6.23,11.45 7.15,11.32 				"/>
				<polygon class="st9" points="13.85,10.48 14.27,11.32 15.19,11.45 14.52,12.1 14.68,13.02 13.85,12.59 13.03,13.02 13.19,12.1 
					12.52,11.45 13.44,11.32 				"/>
				<polygon class="st9" points="20.14,10.48 20.56,11.32 21.48,11.45 20.81,12.1 20.97,13.02 20.14,12.59 19.32,13.02 19.47,12.1 
					18.81,11.45 19.73,11.32 				"/>
			</g>
			<g>
				<polygon class="st9" points="1.27,15.9 1.69,16.74 2.61,16.87 1.94,17.52 2.1,18.44 1.27,18.01 0.45,18.44 0.6,17.52 
					-0.06,16.87 0.86,16.74 				"/>
				<polygon class="st9" points="7.56,15.9 7.98,16.74 8.9,16.87 8.23,17.52 8.39,18.44 7.56,18.01 6.74,18.44 6.89,17.52 
					6.23,16.87 7.15,16.74 				"/>
				<polygon class="st9" points="13.85,15.9 14.27,16.74 15.19,16.87 14.52,17.52 14.68,18.44 13.85,18.01 13.03,18.44 13.19,17.52 
					12.52,16.87 13.44,16.74 				"/>
				<polygon class="st9" points="20.14,15.9 20.56,16.74 21.48,16.87 20.81,17.52 20.97,18.44 20.14,18.01 19.32,18.44 19.47,17.52 
					18.81,16.87 19.73,16.74 				"/>
			</g>
			<g>
				<polygon class="st9" points="1.27,21.32 1.69,22.16 2.61,22.29 1.94,22.94 2.1,23.86 1.27,23.43 0.45,23.86 0.6,22.94 
					-0.06,22.29 0.86,22.16 				"/>
				<polygon class="st9" points="7.56,21.32 7.98,22.16 8.9,22.29 8.23,22.94 8.39,23.86 7.56,23.43 6.74,23.86 6.89,22.94 
					6.23,22.29 7.15,22.16 				"/>
				<polygon class="st9" points="13.85,21.32 14.27,22.16 15.19,22.29 14.52,22.94 14.68,23.86 13.85,23.43 13.03,23.86 
					13.19,22.94 12.52,22.29 13.44,22.16 				"/>
				<polygon class="st9" points="20.14,21.32 20.56,22.16 21.48,22.29 20.81,22.94 20.97,23.86 20.14,23.43 19.32,23.86 
					19.47,22.94 18.81,22.29 19.73,22.16 				"/>
			</g>
		</g>
		<rect x="-11.45" y="0.97" class="st9" width="75.2" height="50"/>
		<rect x="-11.45" y="0.97" class="st23" width="38.03" height="26.98"/>
		<g>
			<rect x="26.58" y="0.97" class="st24" width="37.16" height="3.96"/>
			<rect x="26.58" y="8.65" class="st24" width="37.16" height="3.96"/>
			<rect x="26.58" y="16.32" class="st24" width="37.16" height="3.96"/>
			<rect x="26.58" y="23.99" class="st24" width="37.16" height="3.96"/>
			<rect x="-11.45" y="31.67" class="st24" width="75.2" height="3.96"/>
			<rect x="-11.45" y="39.34" class="st24" width="75.2" height="3.96"/>
			<rect x="-11.45" y="47.01" class="st24" width="75.2" height="3.96"/>
		</g>
		<g>
			<g>
				<polygon class="st9" points="4.94,3.99 5.85,3.34 4.73,3.34 4.38,2.27 4.04,3.34 2.92,3.34 3.82,3.99 3.48,5.06 4.38,4.4 
					5.29,5.06 				"/>
				<polygon class="st9" points="11.24,3.99 12.15,3.34 11.03,3.34 10.68,2.27 10.34,3.34 9.22,3.34 10.12,3.99 9.78,5.06 
					10.68,4.4 11.59,5.06 				"/>
				<polygon class="st9" points="17.54,3.99 18.45,3.34 17.33,3.34 16.98,2.27 16.64,3.34 15.52,3.34 16.42,3.99 16.08,5.06 
					16.98,4.4 17.89,5.06 				"/>
				<polygon class="st9" points="23.84,3.99 24.75,3.34 23.63,3.34 23.28,2.27 22.94,3.34 21.82,3.34 22.72,3.99 22.38,5.06 
					23.28,4.4 24.19,5.06 				"/>
			</g>
			<polygon class="st9" points="1.79,6.69 2.7,6.04 1.58,6.04 1.23,4.97 0.89,6.04 -0.23,6.04 0.67,6.69 0.33,7.76 1.23,7.1 
				2.14,7.76 			"/>
			<polygon class="st9" points="8.09,6.69 9,6.04 7.88,6.04 7.53,4.97 7.19,6.04 6.07,6.04 6.97,6.69 6.63,7.76 7.53,7.1 8.44,7.76 
							"/>
			<polygon class="st9" points="14.39,6.69 15.3,6.04 14.18,6.04 13.83,4.97 13.49,6.04 12.37,6.04 13.27,6.69 12.93,7.76 
				13.83,7.1 14.74,7.76 			"/>
			<polygon class="st9" points="20.69,6.69 21.6,6.04 20.48,6.04 20.13,4.97 19.79,6.04 18.67,6.04 19.57,6.69 19.23,7.76 
				20.13,7.1 21.04,7.76 			"/>
			<polygon class="st9" points="4.94,9.39 5.85,8.74 4.73,8.74 4.38,7.67 4.04,8.74 2.92,8.74 3.82,9.39 3.48,10.46 4.38,9.8 
				5.29,10.46 			"/>
			<polygon class="st9" points="11.24,9.39 12.15,8.74 11.03,8.74 10.68,7.67 10.34,8.74 9.22,8.74 10.12,9.39 9.78,10.46 
				10.68,9.8 11.59,10.46 			"/>
			<polygon class="st9" points="17.54,9.39 18.45,8.74 17.33,8.74 16.98,7.67 16.64,8.74 15.52,8.74 16.42,9.39 16.08,10.46 
				16.98,9.8 17.89,10.46 			"/>
			<polygon class="st9" points="23.84,9.39 24.75,8.74 23.63,8.74 23.28,7.67 22.94,8.74 21.82,8.74 22.72,9.39 22.38,10.46 
				23.28,9.8 24.19,10.46 			"/>
			<polygon class="st9" points="1.79,12.09 2.7,11.44 1.58,11.44 1.23,10.37 0.89,11.44 -0.23,11.44 0.67,12.09 0.33,13.16 
				1.23,12.5 2.14,13.16 			"/>
			<polygon class="st9" points="8.09,12.09 9,11.44 7.88,11.44 7.53,10.37 7.19,11.44 6.07,11.44 6.97,12.09 6.63,13.16 7.53,12.5 
				8.44,13.16 			"/>
			<polygon class="st9" points="14.39,12.09 15.3,11.44 14.18,11.44 13.83,10.37 13.49,11.44 12.37,11.44 13.27,12.09 12.93,13.16 
				13.83,12.5 14.74,13.16 			"/>
			<polygon class="st9" points="20.69,12.09 21.6,11.44 20.48,11.44 20.13,10.37 19.79,11.44 18.67,11.44 19.57,12.09 19.23,13.16 
				20.13,12.5 21.04,13.16 			"/>
			<polygon class="st9" points="4.94,14.79 5.85,14.14 4.73,14.14 4.38,13.07 4.04,14.14 2.92,14.14 3.82,14.79 3.48,15.86 
				4.38,15.2 5.29,15.86 			"/>
			<polygon class="st9" points="11.24,14.79 12.15,14.14 11.03,14.14 10.68,13.07 10.34,14.14 9.22,14.14 10.12,14.79 9.78,15.86 
				10.68,15.2 11.59,15.86 			"/>
			<polygon class="st9" points="17.54,14.79 18.45,14.14 17.33,14.14 16.98,13.07 16.64,14.14 15.52,14.14 16.42,14.79 16.08,15.86 
				16.98,15.2 17.89,15.86 			"/>
			<polygon class="st9" points="23.84,14.79 24.75,14.14 23.63,14.14 23.28,13.07 22.94,14.14 21.82,14.14 22.72,14.79 22.38,15.86 
				23.28,15.2 24.19,15.86 			"/>
			<polygon class="st9" points="1.79,17.49 2.7,16.84 1.58,16.84 1.23,15.77 0.89,16.84 -0.23,16.84 0.67,17.49 0.33,18.56 
				1.23,17.9 2.14,18.56 			"/>
			<polygon class="st9" points="8.09,17.49 9,16.84 7.88,16.84 7.53,15.77 7.19,16.84 6.07,16.84 6.97,17.49 6.63,18.56 7.53,17.9 
				8.44,18.56 			"/>
			<polygon class="st9" points="14.39,17.49 15.3,16.84 14.18,16.84 13.83,15.77 13.49,16.84 12.37,16.84 13.27,17.49 12.93,18.56 
				13.83,17.9 14.74,18.56 			"/>
			<polygon class="st9" points="20.69,17.49 21.6,16.84 20.48,16.84 20.13,15.77 19.79,16.84 18.67,16.84 19.57,17.49 19.23,18.56 
				20.13,17.9 21.04,18.56 			"/>
			<polygon class="st9" points="4.94,20.19 5.85,19.54 4.73,19.54 4.38,18.47 4.04,19.54 2.92,19.54 3.82,20.19 3.48,21.26 
				4.38,20.6 5.29,21.26 			"/>
			<polygon class="st9" points="11.24,20.19 12.15,19.54 11.03,19.54 10.68,18.47 10.34,19.54 9.22,19.54 10.12,20.19 9.78,21.26 
				10.68,20.6 11.59,21.26 			"/>
			<polygon class="st9" points="17.54,20.19 18.45,19.54 17.33,19.54 16.98,18.47 16.64,19.54 15.52,19.54 16.42,20.19 16.08,21.26 
				16.98,20.6 17.89,21.26 			"/>
			<polygon class="st9" points="23.84,20.19 24.75,19.54 23.63,19.54 23.28,18.47 22.94,19.54 21.82,19.54 22.72,20.19 22.38,21.26 
				23.28,20.6 24.19,21.26 			"/>
			<polygon class="st9" points="1.79,22.89 2.7,22.24 1.58,22.24 1.23,21.17 0.89,22.24 -0.23,22.24 0.67,22.89 0.33,23.96 
				1.23,23.3 2.14,23.96 			"/>
			<polygon class="st9" points="8.09,22.89 9,22.24 7.88,22.24 7.53,21.17 7.19,22.24 6.07,22.24 6.97,22.89 6.63,23.96 7.53,23.3 
				8.44,23.96 			"/>
			<polygon class="st9" points="14.39,22.89 15.3,22.24 14.18,22.24 13.83,21.17 13.49,22.24 12.37,22.24 13.27,22.89 12.93,23.96 
				13.83,23.3 14.74,23.96 			"/>
			<polygon class="st9" points="20.69,22.89 21.6,22.24 20.48,22.24 20.13,21.17 19.79,22.24 18.67,22.24 19.57,22.89 19.23,23.96 
				20.13,23.3 21.04,23.96 			"/>
			<polygon class="st9" points="4.94,25.59 5.85,24.94 4.73,24.94 4.38,23.87 4.04,24.94 2.92,24.94 3.82,25.59 3.48,26.66 4.38,26 
				5.29,26.66 			"/>
			<polygon class="st9" points="11.24,25.59 12.15,24.94 11.03,24.94 10.68,23.87 10.34,24.94 9.22,24.94 10.12,25.59 9.78,26.66 
				10.68,26 11.59,26.66 			"/>
			<polygon class="st9" points="17.54,25.59 18.45,24.94 17.33,24.94 16.98,23.87 16.64,24.94 15.52,24.94 16.42,25.59 16.08,26.66 
				16.98,26 17.89,26.66 			"/>
			<polygon class="st9" points="23.84,25.59 24.75,24.94 23.63,24.94 23.28,23.87 22.94,24.94 21.82,24.94 22.72,25.59 22.38,26.66 
				23.28,26 24.19,26.66 			"/>
		</g>
	</g>
</g>
</svg>
