<?xml version="1.0" encoding="utf-8"?>
<!-- Generator: Adobe Illustrator 23.0.0, SVG Export Plug-In . SVG Version: 6.00 Build 0)  -->
<svg version="1.1" id="图层_1" xmlns="http://www.w3.org/2000/svg" xmlns:xlink="http://www.w3.org/1999/xlink" x="0px" y="0px"
	 viewBox="0 0 52 52" style="enable-background:new 0 0 52 52;" xml:space="preserve">
<style type="text/css">
	.st0{clip-path:url(#SVGID_2_);}
	.st1{fill:#DE2910;}
	.st2{fill:#FFDC00;}
	.st3{clip-path:url(#SVGID_4_);}
	.st4{fill:#DB0C1B;}
	.st5{fill:#FFCE0D;}
	.st6{clip-path:url(#SVGID_6_);}
	.st7{fill:#0039A6;}
	.st8{fill:#D52B1E;}
	.st9{fill:#FFFFFF;}
	.st10{clip-path:url(#SVGID_8_);}
	.st11{fill:#002395;}
	.st12{fill:#ED2939;}
	.st13{clip-path:url(#SVGID_10_);}
	.st14{fill:#009246;}
	.st15{fill:#CE2B37;}
	.st16{clip-path:url(#SVGID_12_);}
	.st17{fill:#002377;}
	.st18{fill:#C2121F;}
	.st19{clip-path:url(#SVGID_14_);}
	.st20{fill:#000066;}
	.st21{fill:#CC0000;}
	.st22{clip-path:url(#SVGID_16_);}
	.st23{fill:#233CAF;}
	.st24{fill:#EB0000;}
	.st25{clip-path:url(#SVGID_18_);}
	.st26{fill:#00785E;}
	.st27{fill:#FBD116;}
	.st28{clip-path:url(#SVGID_20_);}
	.st29{fill:#CE1126;}
	.st30{fill:#0038A8;}
	.st31{fill:#FCD116;}
	.st32{clip-path:url(#SVGID_22_);fill:#FFFFFF;}
	.st33{clip-path:url(#SVGID_22_);}
	.st34{clip-path:url(#SVGID_22_);fill:#003478;}
	.st35{clip-path:url(#SVGID_22_);fill:#C60C30;}
	.st36{fill:none;}
	.st37{clip-path:url(#SVGID_26_);}
	.st38{fill:#CC0001;}
	.st39{fill:#010066;}
	.st40{fill:#FFCC00;}
	.st41{clip-path:url(#SVGID_28_);}
	.st42{clip-path:url(#SVGID_30_);}
	.st43{clip-path:url(#SVGID_32_);}
	.st44{fill:#EB2837;}
	.st45{clip-path:url(#SVGID_34_);}
	.st46{fill:#128807;}
	.st47{fill:#FF9933;}
	.st48{fill:#000088;}
	.st49{clip-path:url(#SVGID_36_);}
	.st50{clip-path:url(#SVGID_38_);}
	.st51{clip-path:url(#SVGID_40_);}
	.st52{fill:#EB1E23;}
	.st53{fill:#FFEB00;}
	.st54{clip-path:url(#SVGID_42_);fill:#FE0000;}
	.st55{clip-path:url(#SVGID_42_);fill:#000095;}
	.st56{clip-path:url(#SVGID_42_);fill:#FFFFFF;}
</style>
<g>
	<defs>
		<circle id="SVGID_11_" cx="26.01" cy="26.37" r="25"/>
	</defs>
	<clipPath id="SVGID_2_">
		<use xlink:href="#SVGID_11_"  style="overflow:visible;"/>
	</clipPath>
	<g class="st0">
		<rect x="-11.49" y="1.37" class="st9" width="75" height="50"/>
		<g>
			<polygon class="st17" points="-11.49,34.82 -11.49,45.26 4.54,34.82 			"/>
			<polygon class="st17" points="-11.49,7.77 -11.49,17.93 4.1,17.93 			"/>
			<polygon class="st17" points="55.77,1.37 32.87,1.37 32.87,16.3 			"/>
			<polygon class="st17" points="19.15,1.37 -4,1.37 19.15,16.46 			"/>
			<polygon class="st17" points="-3.55,51.37 19.15,51.37 19.15,36.58 			"/>
			<polygon class="st17" points="63.51,17.93 63.51,7.61 47.68,17.93 			"/>
			<polygon class="st17" points="32.87,51.37 55.33,51.37 32.87,36.73 			"/>
			<polygon class="st17" points="63.51,45.42 63.51,34.82 47.24,34.82 			"/>
		</g>
		<path class="st18" d="M29.89,21.51h33.62v9.73H29.89v20.13h-7.76V31.24h-33.62v-9.73h33.62V1.37h7.76V21.51z M-11.49,50.87v0.5
			h5.04l25.41-16.56h-5.82L-11.49,50.87z M58.68,1.37l-25.4,16.56h5.82L63.51,2.01V1.37H58.68z M38.71,34.81l24.8,16.17v-3.79
			L44.52,34.81H38.71z M13.02,17.93L-11.49,1.96v3.79L7.2,17.93H13.02z"/>
	</g>
</g>
</svg>
