<?xml version="1.0" encoding="utf-8"?>
<!-- Generator: Adobe Illustrator 23.0.0, SVG Export Plug-In . SVG Version: 6.00 Build 0)  -->
<svg version="1.1" id="图层_1" xmlns="http://www.w3.org/2000/svg" xmlns:xlink="http://www.w3.org/1999/xlink" x="0px" y="0px"
	 viewBox="0 0 52 52" style="enable-background:new 0 0 52 52;" xml:space="preserve">
<style type="text/css">
	.st0{clip-path:url(#SVGID_2_);}
	.st1{fill:#DE2910;}
	.st2{fill:#FFDC00;}
	.st3{clip-path:url(#SVGID_4_);}
	.st4{fill:#DB0C1B;}
	.st5{fill:#FFCE0D;}
	.st6{clip-path:url(#SVGID_6_);}
	.st7{fill:#0039A6;}
	.st8{fill:#D52B1E;}
	.st9{fill:#FFFFFF;}
	.st10{clip-path:url(#SVGID_8_);}
	.st11{fill:#002395;}
	.st12{fill:#ED2939;}
	.st13{clip-path:url(#SVGID_10_);}
	.st14{fill:#009246;}
	.st15{fill:#CE2B37;}
	.st16{clip-path:url(#SVGID_12_);}
	.st17{fill:#002377;}
	.st18{fill:#C2121F;}
	.st19{clip-path:url(#SVGID_14_);}
	.st20{fill:#000066;}
	.st21{fill:#CC0000;}
	.st22{clip-path:url(#SVGID_16_);}
	.st23{fill:#233CAF;}
	.st24{fill:#EB0000;}
	.st25{clip-path:url(#SVGID_18_);}
	.st26{fill:#00785E;}
	.st27{fill:#FBD116;}
	.st28{clip-path:url(#SVGID_20_);}
	.st29{fill:#CE1126;}
	.st30{fill:#0038A8;}
	.st31{fill:#FCD116;}
	.st32{clip-path:url(#SVGID_22_);fill:#FFFFFF;}
	.st33{clip-path:url(#SVGID_22_);}
	.st34{clip-path:url(#SVGID_22_);fill:#003478;}
	.st35{clip-path:url(#SVGID_22_);fill:#C60C30;}
	.st36{fill:none;}
	.st37{clip-path:url(#SVGID_26_);}
	.st38{fill:#CC0001;}
	.st39{fill:#010066;}
	.st40{fill:#FFCC00;}
	.st41{clip-path:url(#SVGID_28_);}
	.st42{clip-path:url(#SVGID_30_);}
	.st43{clip-path:url(#SVGID_32_);}
	.st44{fill:#EB2837;}
	.st45{clip-path:url(#SVGID_34_);}
	.st46{fill:#128807;}
	.st47{fill:#FF9933;}
	.st48{fill:#000088;}
	.st49{clip-path:url(#SVGID_36_);}
	.st50{clip-path:url(#SVGID_38_);}
	.st51{clip-path:url(#SVGID_40_);}
	.st52{fill:#EB1E23;}
	.st53{fill:#FFEB00;}
	.st54{clip-path:url(#SVGID_42_);fill:#FE0000;}
	.st55{clip-path:url(#SVGID_42_);fill:#000095;}
	.st56{clip-path:url(#SVGID_42_);fill:#FFFFFF;}
</style>
<g>
	<defs>
		<path id="SVGID_25_" d="M50.7,26.42c0,13.81-11.19,25-25,25c-13.81,0-25-11.19-25-25c0-13.81,11.19-25,25-25
			C39.51,1.42,50.7,12.61,50.7,26.42z"/>
	</defs>
	<clipPath id="SVGID_2_">
		<use xlink:href="#SVGID_25_"  style="overflow:visible;"/>
	</clipPath>
	<g class="st0">
		<rect x="-11.05" y="1.42" class="st9" width="75" height="50"/>
		<g>
			<rect x="26.45" y="1.42" class="st38" width="37.5" height="3.57"/>
			<rect x="26.45" y="8.56" class="st38" width="37.5" height="3.57"/>
			<rect x="26.45" y="15.7" class="st38" width="37.5" height="3.57"/>
			<rect x="26.45" y="22.85" class="st38" width="37.5" height="3.57"/>
			<rect x="-11.05" y="29.99" class="st38" width="75" height="3.57"/>
			<rect x="-11.05" y="37.13" class="st38" width="75" height="3.57"/>
			<rect x="-11.05" y="44.27" class="st38" width="75" height="3.57"/>
		</g>
		<rect x="-11.05" y="1.42" class="st39" width="37.5" height="28.56"/>
		<path class="st40" d="M13.58,23.33c-3.32,0-6-2.69-6-6s2.69-6,6-6c0.6,0,1.18,0.09,1.73,0.25c-1.02-0.61-2.2-0.97-3.47-0.97
			c-3.71,0-6.72,3.01-6.72,6.72c0,3.71,3.01,6.72,6.72,6.72c1.27,0,2.46-0.36,3.47-0.97C14.76,23.24,14.18,23.33,13.58,23.33z"/>
		<polygon class="st40" points="18.5,11.95 19.09,14.68 20.81,12.47 20.16,15.2 22.67,13.95 20.9,16.12 23.7,16.09 21.16,17.28 
			23.7,18.47 20.9,18.44 22.67,20.61 20.16,19.37 20.81,22.09 19.09,19.88 18.5,22.62 17.9,19.88 16.18,22.09 16.83,19.37 
			14.32,20.61 16.09,18.44 13.29,18.47 15.83,17.28 13.29,16.09 16.09,16.12 14.32,13.95 16.83,15.2 16.18,12.47 17.9,14.68 		"/>
	</g>
</g>
</svg>
