<?xml version="1.0" encoding="utf-8"?>
<!-- Generator: Adobe Illustrator 23.0.0, SVG Export Plug-In . SVG Version: 6.00 Build 0)  -->
<svg version="1.1" id="图层_1" xmlns="http://www.w3.org/2000/svg" xmlns:xlink="http://www.w3.org/1999/xlink" x="0px" y="0px"
	 viewBox="0 0 52 52" style="enable-background:new 0 0 52 52;" xml:space="preserve">
<style type="text/css">
	.st0{clip-path:url(#SVGID_2_);}
	.st1{fill:#DE2910;}
	.st2{fill:#FFDC00;}
	.st3{clip-path:url(#SVGID_4_);}
	.st4{fill:#DB0C1B;}
	.st5{fill:#FFCE0D;}
	.st6{clip-path:url(#SVGID_6_);}
	.st7{fill:#0039A6;}
	.st8{fill:#D52B1E;}
	.st9{fill:#FFFFFF;}
	.st10{clip-path:url(#SVGID_8_);}
	.st11{fill:#002395;}
	.st12{fill:#ED2939;}
	.st13{clip-path:url(#SVGID_10_);}
	.st14{fill:#009246;}
	.st15{fill:#CE2B37;}
	.st16{clip-path:url(#SVGID_12_);}
	.st17{fill:#002377;}
	.st18{fill:#C2121F;}
	.st19{clip-path:url(#SVGID_14_);}
	.st20{fill:#000066;}
	.st21{fill:#CC0000;}
	.st22{clip-path:url(#SVGID_16_);}
	.st23{fill:#233CAF;}
	.st24{fill:#EB0000;}
	.st25{clip-path:url(#SVGID_18_);}
	.st26{fill:#00785E;}
	.st27{fill:#FBD116;}
	.st28{clip-path:url(#SVGID_20_);}
	.st29{fill:#CE1126;}
	.st30{fill:#0038A8;}
	.st31{fill:#FCD116;}
	.st32{clip-path:url(#SVGID_22_);fill:#FFFFFF;}
	.st33{clip-path:url(#SVGID_22_);}
	.st34{clip-path:url(#SVGID_22_);fill:#003478;}
	.st35{clip-path:url(#SVGID_22_);fill:#C60C30;}
	.st36{fill:none;}
	.st37{clip-path:url(#SVGID_26_);}
	.st38{fill:#CC0001;}
	.st39{fill:#010066;}
	.st40{fill:#FFCC00;}
	.st41{clip-path:url(#SVGID_28_);}
	.st42{clip-path:url(#SVGID_30_);}
	.st43{clip-path:url(#SVGID_32_);}
	.st44{fill:#EB2837;}
	.st45{clip-path:url(#SVGID_34_);}
	.st46{fill:#128807;}
	.st47{fill:#FF9933;}
	.st48{fill:#000088;}
	.st49{clip-path:url(#SVGID_36_);}
	.st50{clip-path:url(#SVGID_38_);}
	.st51{clip-path:url(#SVGID_40_);}
	.st52{fill:#EB1E23;}
	.st53{fill:#FFEB00;}
	.st54{clip-path:url(#SVGID_42_);fill:#FE0000;}
	.st55{clip-path:url(#SVGID_42_);fill:#000095;}
	.st56{clip-path:url(#SVGID_42_);fill:#FFFFFF;}
</style>
<g>
	<defs>
		<path id="SVGID_13_" d="M50.94,26.01c0,13.81-11.19,25-25,25c-13.81,0-25-11.19-25-25c0-13.81,11.19-25,25-25
			C39.75,1.01,50.94,12.21,50.94,26.01z"/>
	</defs>
	<clipPath id="SVGID_2_">
		<use xlink:href="#SVGID_13_"  style="overflow:visible;"/>
	</clipPath>
	<g class="st0">
		<rect x="-11.56" y="1.01" class="st20" width="75" height="50"/>
		<g>
			<polygon class="st9" points="25.95,1.01 20.93,1.01 10.86,7.85 10.86,1.01 3.39,1.01 3.39,7.85 -6.68,1.01 -11.56,1.01 
				-11.56,3.96 -3.61,9.36 -11.56,9.36 -11.56,17.67 -3.61,17.67 -11.56,23.07 -11.56,26.02 -6.68,26.02 3.39,19.18 3.39,26.02 
				10.86,26.02 10.86,19.18 20.92,26.02 25.95,26.02 25.95,23.17 17.85,17.67 25.95,17.67 25.95,9.36 17.86,9.36 25.95,3.87 			"/>
			<g>
				<polygon class="st21" points="0.95,9.36 -11.32,1.01 -11.56,1.01 -11.56,2.78 -1.88,9.36 				"/>
				<polygon class="st21" points="13.36,9.36 25.87,1.01 23,1.01 10.49,9.36 				"/>
				<path class="st21" d="M9.42,10.93V1.01H4.96v9.91h-16.51c0,0,0.01,4.92,0.02,4.97l16.49,0.01v10.1h4.47v-10.1V15.9h16.52v-4.97
					H9.42z"/>
				<polygon class="st21" points="13.03,17.49 25.58,26.02 25.95,26.02 25.95,24.34 15.86,17.49 				"/>
				<polygon class="st21" points="1.1,17.49 -11.56,25.92 -11.56,26.02 -8.83,26.02 3.97,17.49 				"/>
			</g>
		</g>
		<g>
			<polygon class="st9" points="44.52,7.05 45.44,9.77 48.43,9.77 46.01,11.54 46.9,14.24 44.52,12.63 42.14,14.24 43.03,11.54 
				40.63,9.77 43.62,9.77 			"/>
			<polygon class="st21" points="43.56,11.37 42,10.22 43.94,10.22 44.52,8.46 45.12,10.22 47.05,10.22 45.48,11.37 46.06,13.13 
				44.52,12.09 42.98,13.13 			"/>
		</g>
		<g>
			<polygon class="st9" points="54.44,16.09 55.27,18.53 57.94,18.53 55.77,20.11 56.57,22.53 54.44,21.09 52.31,22.53 53.11,20.11 
				50.96,18.53 53.63,18.53 			"/>
		</g>
		<g>
			<polygon class="st9" points="32.97,18.79 33.87,21.44 36.78,21.44 34.42,23.16 35.29,25.79 32.97,24.23 30.65,25.79 31.53,23.16 
				29.19,21.44 32.1,21.44 			"/>
			<polygon class="st21" points="32.04,23 30.52,21.88 32.41,21.88 32.98,20.17 33.56,21.88 35.43,21.88 33.9,23 34.47,24.71 
				32.97,23.7 31.48,24.71 			"/>
		</g>
		<g>
			<polygon class="st9" points="44.6,36.64 45.62,39.65 48.92,39.65 46.24,41.6 47.23,44.59 44.6,42.81 41.97,44.59 42.96,41.6 
				40.31,39.65 43.61,39.65 			"/>
			<polygon class="st21" points="43.49,41.44 41.67,40.1 43.93,40.1 44.61,38.05 45.3,40.1 47.54,40.1 45.71,41.43 46.39,43.48 
				44.6,42.27 42.81,43.48 			"/>
		</g>
	</g>
</g>
</svg>
