<?xml version="1.0" encoding="utf-8"?>
<!-- Generator: Adobe Illustrator 23.0.0, SVG Export Plug-In . SVG Version: 6.00 Build 0)  -->
<svg version="1.1" id="图层_1" xmlns="http://www.w3.org/2000/svg" xmlns:xlink="http://www.w3.org/1999/xlink" x="0px" y="0px"
	 viewBox="0 0 52 52" style="enable-background:new 0 0 52 52;" xml:space="preserve">
<style type="text/css">
	.st0{clip-path:url(#SVGID_2_);}
	.st1{fill:#DE2910;}
	.st2{fill:#FFDC00;}
	.st3{clip-path:url(#SVGID_4_);}
	.st4{fill:#DB0C1B;}
	.st5{fill:#FFCE0D;}
	.st6{clip-path:url(#SVGID_6_);}
	.st7{fill:#0039A6;}
	.st8{fill:#D52B1E;}
	.st9{fill:#FFFFFF;}
	.st10{clip-path:url(#SVGID_8_);}
	.st11{fill:#002395;}
	.st12{fill:#ED2939;}
	.st13{clip-path:url(#SVGID_10_);}
	.st14{fill:#009246;}
	.st15{fill:#CE2B37;}
	.st16{clip-path:url(#SVGID_12_);}
	.st17{fill:#002377;}
	.st18{fill:#C2121F;}
	.st19{clip-path:url(#SVGID_14_);}
	.st20{fill:#000066;}
	.st21{fill:#CC0000;}
	.st22{clip-path:url(#SVGID_16_);}
	.st23{fill:#233CAF;}
	.st24{fill:#EB0000;}
	.st25{clip-path:url(#SVGID_18_);}
	.st26{fill:#00785E;}
	.st27{fill:#FBD116;}
	.st28{clip-path:url(#SVGID_20_);}
	.st29{fill:#CE1126;}
	.st30{fill:#0038A8;}
	.st31{fill:#FCD116;}
	.st32{clip-path:url(#SVGID_22_);fill:#FFFFFF;}
	.st33{clip-path:url(#SVGID_22_);}
	.st34{clip-path:url(#SVGID_22_);fill:#003478;}
	.st35{clip-path:url(#SVGID_22_);fill:#C60C30;}
	.st36{fill:none;}
	.st37{clip-path:url(#SVGID_26_);}
	.st38{fill:#CC0001;}
	.st39{fill:#010066;}
	.st40{fill:#FFCC00;}
	.st41{clip-path:url(#SVGID_28_);}
	.st42{clip-path:url(#SVGID_30_);}
	.st43{clip-path:url(#SVGID_32_);}
	.st44{fill:#EB2837;}
	.st45{clip-path:url(#SVGID_34_);}
	.st46{fill:#128807;}
	.st47{fill:#FF9933;}
	.st48{fill:#000088;}
	.st49{clip-path:url(#SVGID_36_);}
	.st50{clip-path:url(#SVGID_38_);}
	.st51{clip-path:url(#SVGID_40_);}
	.st52{fill:#EB1E23;}
	.st53{fill:#FFEB00;}
	.st54{clip-path:url(#SVGID_42_);fill:#FE0000;}
	.st55{clip-path:url(#SVGID_42_);fill:#000095;}
	.st56{clip-path:url(#SVGID_42_);fill:#FFFFFF;}
</style>
<g>
	<defs>
		<path id="SVGID_19_" d="M51.45,25.99c0,13.81-11.19,25-25,25c-13.81,0-25-11.19-25-25c0-13.81,11.19-25,25-25
			C40.26,0.99,51.45,12.18,51.45,25.99z"/>
	</defs>
	<clipPath id="SVGID_2_">
		<use xlink:href="#SVGID_19_"  style="overflow:visible;"/>
	</clipPath>
	<g class="st0">
		<g>
			<rect x="1.45" y="25.99" class="st29" width="50" height="25"/>
			<rect x="1.45" y="0.99" class="st30" width="50" height="25"/>
			<polygon class="st9" points="31.51,25.99 -11.04,50.99 -11.04,0.99 			"/>
		</g>
		<polygon class="st31" points="22.19,24.34 24.14,24.93 25.36,23.2 25.39,25.33 27.32,25.92 25.42,26.64 25.37,28.67 24.17,27.05 
			22.17,27.71 23.39,25.98 		"/>
		<path class="st31" d="M17.51,26.71l0.64-0.68l-0.64-0.68l-5.05,0.34c-0.01-0.11-0.02-0.22-0.03-0.32l4.57-0.56l-0.59-0.62
			l-4.04,0.85c-0.13-0.64-0.38-1.23-0.73-1.76l3.46-2.25l-0.02-0.86l-3.63,2.84c-0.07-0.09-0.13-0.17-0.2-0.25l3.81-3.33l-0.03-0.94
			l-0.94-0.03l-3.33,3.81c-0.08-0.07-0.17-0.14-0.25-0.2l2.84-3.63l-0.86-0.03l-2.25,3.46c-0.53-0.35-1.12-0.6-1.75-0.73l0.85-4.04
			l-0.63-0.59L8.17,21.1c-0.11-0.02-0.21-0.03-0.32-0.03l0.34-5.05L7.5,15.37l-0.68,0.64l0.34,5.05c-0.11,0.01-0.22,0.02-0.32,0.03
			l-0.56-4.58l-0.62,0.59l0.85,4.04c-0.64,0.13-1.23,0.38-1.76,0.73L2.5,18.41l-0.86,0.03l2.84,3.63c-0.08,0.07-0.17,0.13-0.25,0.2
			L0.9,18.46l-0.94,0.03l-0.03,0.94l3.81,3.33c-0.07,0.08-0.14,0.17-0.2,0.25l-3.63-2.84l-0.03,0.86l3.46,2.25
			C3,23.8,2.75,24.39,2.62,25.03l-4.04-0.85L-2,24.8l4.57,0.56c-0.01,0.11-0.02,0.21-0.03,0.32l-5.05-0.34l-0.64,0.68l0.64,0.68
			l5.05-0.34c0.01,0.11,0.02,0.22,0.03,0.32L-2,27.25l0.59,0.62l4.04-0.85c0.13,0.64,0.38,1.23,0.73,1.75l-3.46,2.25l0.03,0.86
			l3.63-2.84c0.07,0.09,0.13,0.17,0.2,0.25l-3.81,3.33l0.03,0.94l0.94,0.03l3.33-3.81c0.08,0.07,0.17,0.14,0.25,0.2l-2.84,3.63
			l0.86,0.02l2.25-3.46c0.52,0.35,1.12,0.6,1.76,0.73l-0.85,4.04l0.62,0.59l0.56-4.57c0.11,0.02,0.21,0.03,0.32,0.03l-0.34,5.05
			l0.68,0.64l0.68-0.64l-0.34-5.05c0.11-0.01,0.22-0.02,0.32-0.03l0.55,4.57l0.63-0.59l-0.85-4.04c0.64-0.13,1.23-0.38,1.75-0.73
			l2.25,3.46l0.86-0.02l-2.84-3.63c0.09-0.07,0.17-0.13,0.25-0.2l3.33,3.81l0.94-0.03l0.03-0.94l-3.81-3.34
			c0.07-0.08,0.14-0.17,0.2-0.25l3.63,2.84l0.03-0.86l-3.46-2.25c0.35-0.52,0.6-1.12,0.73-1.75l4.04,0.85l0.59-0.62l-4.57-0.56
			c0.01-0.1,0.02-0.21,0.03-0.32L17.51,26.71z"/>
	</g>
</g>
</svg>
