<?xml version="1.0" encoding="utf-8"?>
<!-- Generator: Adobe Illustrator 23.0.0, SVG Export Plug-In . SVG Version: 6.00 Build 0)  -->
<svg version="1.1" id="图层_1" xmlns="http://www.w3.org/2000/svg" xmlns:xlink="http://www.w3.org/1999/xlink" x="0px" y="0px"
	 viewBox="0 0 52 52" style="enable-background:new 0 0 52 52;" xml:space="preserve">
<style type="text/css">
	.st0{clip-path:url(#SVGID_2_);}
	.st1{fill:#DE2910;}
	.st2{fill:#FFDC00;}
	.st3{clip-path:url(#SVGID_4_);}
	.st4{fill:#DB0C1B;}
	.st5{fill:#FFCE0D;}
	.st6{clip-path:url(#SVGID_6_);}
	.st7{fill:#0039A6;}
	.st8{fill:#D52B1E;}
	.st9{fill:#FFFFFF;}
	.st10{clip-path:url(#SVGID_8_);}
	.st11{fill:#002395;}
	.st12{fill:#ED2939;}
	.st13{clip-path:url(#SVGID_10_);}
	.st14{fill:#009246;}
	.st15{fill:#CE2B37;}
	.st16{clip-path:url(#SVGID_12_);}
	.st17{fill:#002377;}
	.st18{fill:#C2121F;}
	.st19{clip-path:url(#SVGID_14_);}
	.st20{fill:#000066;}
	.st21{fill:#CC0000;}
	.st22{clip-path:url(#SVGID_16_);}
	.st23{fill:#233CAF;}
	.st24{fill:#EB0000;}
	.st25{clip-path:url(#SVGID_18_);}
	.st26{fill:#00785E;}
	.st27{fill:#FBD116;}
	.st28{clip-path:url(#SVGID_20_);}
	.st29{fill:#CE1126;}
	.st30{fill:#0038A8;}
	.st31{fill:#FCD116;}
	.st32{clip-path:url(#SVGID_22_);fill:#FFFFFF;}
	.st33{clip-path:url(#SVGID_22_);}
	.st34{clip-path:url(#SVGID_22_);fill:#003478;}
	.st35{clip-path:url(#SVGID_22_);fill:#C60C30;}
	.st36{fill:none;}
	.st37{clip-path:url(#SVGID_26_);}
	.st38{fill:#CC0001;}
	.st39{fill:#010066;}
	.st40{fill:#FFCC00;}
	.st41{clip-path:url(#SVGID_28_);}
	.st42{clip-path:url(#SVGID_30_);}
	.st43{clip-path:url(#SVGID_32_);}
	.st44{fill:#EB2837;}
	.st45{clip-path:url(#SVGID_34_);}
	.st46{fill:#128807;}
	.st47{fill:#FF9933;}
	.st48{fill:#000088;}
	.st49{clip-path:url(#SVGID_36_);}
	.st50{clip-path:url(#SVGID_38_);}
	.st51{clip-path:url(#SVGID_40_);}
	.st52{fill:#EB1E23;}
	.st53{fill:#FFEB00;}
	.st54{clip-path:url(#SVGID_42_);fill:#FE0000;}
	.st55{clip-path:url(#SVGID_42_);fill:#000095;}
	.st56{clip-path:url(#SVGID_42_);fill:#FFFFFF;}
</style>
<g>
	<defs>
		<circle id="SVGID_31_" cx="25.7" cy="25.97" r="25"/>
	</defs>
	<clipPath id="SVGID_2_">
		<use xlink:href="#SVGID_31_"  style="overflow:visible;"/>
	</clipPath>
	<g class="st0">
		<rect x="0.16" y="0.97" class="st44" width="75" height="25"/>
		<rect x="0.16" y="25.97" class="st9" width="75" height="25"/>
		<polygon class="st9" points="34.7,9.62 35.23,11.18 36.94,11.18 35.55,12.19 36.06,13.73 34.7,12.81 33.34,13.73 33.85,12.19 
			32.48,11.18 34.18,11.18 		"/>
		<polygon class="st9" points="24.62,9.62 25.15,11.18 26.86,11.18 25.47,12.19 25.98,13.73 24.62,12.81 23.26,13.73 23.77,12.19 
			22.4,11.18 24.11,11.18 		"/>
		<polygon class="st9" points="29.62,5.91 30.15,7.46 31.86,7.46 30.47,8.48 30.99,10.02 29.62,9.1 28.26,10.02 28.77,8.48 
			27.4,7.46 29.11,7.46 		"/>
		<polygon class="st9" points="32.75,15.56 33.27,17.11 34.98,17.11 33.6,18.13 34.11,19.67 32.75,18.75 31.38,19.67 31.9,18.13 
			30.52,17.11 32.23,17.11 		"/>
		<polygon class="st9" points="26.5,15.56 27.02,17.11 28.73,17.11 27.35,18.13 27.86,19.67 26.5,18.75 25.13,19.67 25.65,18.13 
			24.27,17.11 25.98,17.11 		"/>
		<path class="st9" d="M19.34,13.43c0-4.79,3.82-8.69,8.58-8.82c-1.02-0.37-2.11-0.59-3.26-0.59c-5.2,0-9.41,4.21-9.41,9.41
			c0,5.2,4.21,9.41,9.41,9.41c1.15,0,2.24-0.22,3.26-0.59C23.16,22.12,19.34,18.22,19.34,13.43z"/>
	</g>
</g>
</svg>
