<?xml version="1.0" encoding="utf-8"?>
<!-- Generator: Adobe Illustrator 23.0.0, SVG Export Plug-In . SVG Version: 6.00 Build 0)  -->
<svg version="1.1" id="图层_1" xmlns="http://www.w3.org/2000/svg" xmlns:xlink="http://www.w3.org/1999/xlink" x="0px" y="0px"
	 viewBox="0 0 52 52" style="enable-background:new 0 0 52 52;" xml:space="preserve">
<style type="text/css">
	.st0{clip-path:url(#SVGID_2_);}
	.st1{fill:#DE2910;}
	.st2{fill:#FFDC00;}
	.st3{clip-path:url(#SVGID_4_);}
	.st4{fill:#DB0C1B;}
	.st5{fill:#FFCE0D;}
	.st6{clip-path:url(#SVGID_6_);}
	.st7{fill:#0039A6;}
	.st8{fill:#D52B1E;}
	.st9{fill:#FFFFFF;}
	.st10{clip-path:url(#SVGID_8_);}
	.st11{fill:#002395;}
	.st12{fill:#ED2939;}
	.st13{clip-path:url(#SVGID_10_);}
	.st14{fill:#009246;}
	.st15{fill:#CE2B37;}
	.st16{clip-path:url(#SVGID_12_);}
	.st17{fill:#002377;}
	.st18{fill:#C2121F;}
	.st19{clip-path:url(#SVGID_14_);}
	.st20{fill:#000066;}
	.st21{fill:#CC0000;}
	.st22{clip-path:url(#SVGID_16_);}
	.st23{fill:#233CAF;}
	.st24{fill:#EB0000;}
	.st25{clip-path:url(#SVGID_18_);}
	.st26{fill:#00785E;}
	.st27{fill:#FBD116;}
	.st28{clip-path:url(#SVGID_20_);}
	.st29{fill:#CE1126;}
	.st30{fill:#0038A8;}
	.st31{fill:#FCD116;}
	.st32{clip-path:url(#SVGID_22_);fill:#FFFFFF;}
	.st33{clip-path:url(#SVGID_22_);}
	.st34{clip-path:url(#SVGID_22_);fill:#003478;}
	.st35{clip-path:url(#SVGID_22_);fill:#C60C30;}
	.st36{fill:none;}
	.st37{clip-path:url(#SVGID_26_);}
	.st38{fill:#CC0001;}
	.st39{fill:#010066;}
	.st40{fill:#FFCC00;}
	.st41{clip-path:url(#SVGID_28_);}
	.st42{clip-path:url(#SVGID_30_);}
	.st43{clip-path:url(#SVGID_32_);}
	.st44{fill:#EB2837;}
	.st45{clip-path:url(#SVGID_34_);}
	.st46{fill:#128807;}
	.st47{fill:#FF9933;}
	.st48{fill:#000088;}
	.st49{clip-path:url(#SVGID_36_);}
	.st50{clip-path:url(#SVGID_38_);}
	.st51{clip-path:url(#SVGID_40_);}
	.st52{fill:#EB1E23;}
	.st53{fill:#FFEB00;}
	.st54{clip-path:url(#SVGID_42_);fill:#FE0000;}
	.st55{clip-path:url(#SVGID_42_);fill:#000095;}
	.st56{clip-path:url(#SVGID_42_);fill:#FFFFFF;}
</style>
<g>
	<defs>
		<path id="SVGID_21_" d="M51.39,26.42c0,13.81-11.19,25-25,25s-25-11.19-25-25c0-13.81,11.19-25,25-25S51.39,12.61,51.39,26.42z"/>
	</defs>
	<clipPath id="SVGID_2_">
		<use xlink:href="#SVGID_21_"  style="overflow:visible;"/>
	</clipPath>
	<rect x="-11.11" y="1.42" style="clip-path:url(#SVGID_2_);fill:#FFFFFF;" width="75" height="50"/>
	
		<rect x="3.21" y="13.59" transform="matrix(0.553 -0.8332 0.8332 0.553 -8.2692 13.4576)" class="st0" width="10.4" height="1.69"/>
	
		<rect x="5.37" y="15.03" transform="matrix(0.5539 -0.8326 0.8326 0.5539 -8.5028 15.8808)" class="st0" width="10.4" height="1.69"/>
	
		<rect x="7.53" y="16.47" transform="matrix(0.5543 -0.8323 0.8323 0.5543 -8.7368 18.3091)" class="st0" width="10.4" height="1.69"/>
	
		<rect x="36.17" y="37.04" transform="matrix(0.554 -0.8325 0.8325 0.554 -14.3458 48.9962)" class="st0" width="4.78" height="1.69"/>
	
		<rect x="39.28" y="32.36" transform="matrix(0.5546 -0.8321 0.8321 0.5546 -9.0737 49.4678)" class="st0" width="4.78" height="1.69"/>
	
		<rect x="38.17" y="38.38" transform="matrix(0.5552 -0.8317 0.8317 0.5552 -14.5791 51.1824)" class="st0" width="4.78" height="1.69"/>
	
		<rect x="41.29" y="33.7" transform="matrix(0.5546 -0.8321 0.8321 0.5546 -9.2904 51.7338)" class="st0" width="4.78" height="1.69"/>
	
		<rect x="40.18" y="39.71" transform="matrix(0.5534 -0.8329 0.8329 0.5534 -14.7702 53.5681)" class="st0" width="4.78" height="1.69"/>
	
		<rect x="43.29" y="35.03" transform="matrix(0.5545 -0.8322 0.8322 0.5545 -9.5079 54.0025)" class="st0" width="4.78" height="1.69"/>
	
		<rect x="41.02" y="17.25" transform="matrix(0.8354 -0.5497 0.5497 0.8354 -3.9057 26.2426)" class="st0" width="1.69" height="4.78"/>
	
		<rect x="37.93" y="12.56" transform="matrix(0.8354 -0.5496 0.5496 0.8354 -1.8339 23.7711)" class="st0" width="1.69" height="4.78"/>
	
		<rect x="41.48" y="10.77" transform="matrix(0.8352 -0.5499 0.5499 0.8352 -1.8072 25.9082)" class="st0" width="1.69" height="10.4"/>
	
		<rect x="45.04" y="14.6" transform="matrix(0.8353 -0.5499 0.5499 0.8353 -1.784 28.0318)" class="st0" width="1.69" height="4.78"/>
	
		<rect x="41.95" y="9.91" transform="matrix(0.8358 -0.5491 0.5491 0.8358 0.2761 25.5203)" class="st0" width="1.69" height="4.78"/>
	<rect x="7.6" y="33.07" transform="matrix(0.8358 -0.549 0.549 0.8358 -19.621 10.9171)" class="st0" width="1.69" height="10.4"/>
	
		<rect x="11.62" y="30.42" transform="matrix(0.8354 -0.5497 0.5497 0.8354 -17.525 12.7171)" class="st0" width="1.69" height="10.4"/>
	<g class="st0">
		<rect x="11.16" y="36.9" transform="matrix(0.8354 -0.5497 0.5497 0.8354 -19.6204 13.0643)" width="1.69" height="4.78"/>
		<rect x="8.07" y="32.21" transform="matrix(0.8349 -0.5504 0.5504 0.8349 -17.5683 10.6157)" width="1.69" height="4.78"/>
	</g>
	<path style="clip-path:url(#SVGID_2_);fill:#003478;" d="M38.96,26.44c0,6.92-5.61,12.52-12.52,12.52
		c-6.92,0-12.52-5.61-12.52-12.52s5.61-12.52,12.52-12.52C33.35,13.91,38.96,19.52,38.96,26.44z"/>
	<path style="clip-path:url(#SVGID_2_);fill:#C60C30;" d="M38.96,26.44c0-6.92-5.61-12.52-12.52-12.52c-4.72,0-8.82,2.61-10.96,6.46
		c-2.79,7.16,6.41,12.33,10.93,6.11c4.65-6.31,13.72-1.07,10.94,6.09C38.37,30.76,38.96,28.67,38.96,26.44z"/>
</g>
</svg>
