<?xml version="1.0" encoding="utf-8"?>
<!-- Generator: Adobe Illustrator 23.0.0, SVG Export Plug-In . SVG Version: 6.00 Build 0)  -->
<svg version="1.1" id="图层_1" xmlns="http://www.w3.org/2000/svg" xmlns:xlink="http://www.w3.org/1999/xlink" x="0px" y="0px"
	 viewBox="0 0 52 52" style="enable-background:new 0 0 52 52;" xml:space="preserve">
<style type="text/css">
	.st0{clip-path:url(#SVGID_2_);}
	.st1{fill:#DE2910;}
	.st2{fill:#FFDC00;}
	.st3{clip-path:url(#SVGID_4_);}
	.st4{fill:#DB0C1B;}
	.st5{fill:#FFCE0D;}
	.st6{clip-path:url(#SVGID_6_);}
	.st7{fill:#0039A6;}
	.st8{fill:#D52B1E;}
	.st9{fill:#FFFFFF;}
	.st10{clip-path:url(#SVGID_8_);}
	.st11{fill:#002395;}
	.st12{fill:#ED2939;}
	.st13{clip-path:url(#SVGID_10_);}
	.st14{fill:#009246;}
	.st15{fill:#CE2B37;}
	.st16{clip-path:url(#SVGID_12_);}
	.st17{fill:#002377;}
	.st18{fill:#C2121F;}
	.st19{clip-path:url(#SVGID_14_);}
	.st20{fill:#000066;}
	.st21{fill:#CC0000;}
	.st22{clip-path:url(#SVGID_16_);}
	.st23{fill:#233CAF;}
	.st24{fill:#EB0000;}
	.st25{clip-path:url(#SVGID_18_);}
	.st26{fill:#00785E;}
	.st27{fill:#FBD116;}
	.st28{clip-path:url(#SVGID_20_);}
	.st29{fill:#CE1126;}
	.st30{fill:#0038A8;}
	.st31{fill:#FCD116;}
	.st32{clip-path:url(#SVGID_22_);fill:#FFFFFF;}
	.st33{clip-path:url(#SVGID_22_);}
	.st34{clip-path:url(#SVGID_22_);fill:#003478;}
	.st35{clip-path:url(#SVGID_22_);fill:#C60C30;}
	.st36{fill:none;}
	.st37{clip-path:url(#SVGID_26_);}
	.st38{fill:#CC0001;}
	.st39{fill:#010066;}
	.st40{fill:#FFCC00;}
	.st41{clip-path:url(#SVGID_28_);}
	.st42{clip-path:url(#SVGID_30_);}
	.st43{clip-path:url(#SVGID_32_);}
	.st44{fill:#EB2837;}
	.st45{clip-path:url(#SVGID_34_);}
	.st46{fill:#128807;}
	.st47{fill:#FF9933;}
	.st48{fill:#000088;}
	.st49{clip-path:url(#SVGID_36_);}
	.st50{clip-path:url(#SVGID_38_);}
	.st51{clip-path:url(#SVGID_40_);}
	.st52{fill:#EB1E23;}
	.st53{fill:#FFEB00;}
	.st54{clip-path:url(#SVGID_42_);fill:#FE0000;}
	.st55{clip-path:url(#SVGID_42_);fill:#000095;}
	.st56{clip-path:url(#SVGID_42_);fill:#FFFFFF;}
</style>
<g>
	<defs>
		<path id="SVGID_37_" d="M51.08,25.91c0,13.81-11.19,25-25,25c-13.81,0-25-11.19-25-25c0-13.81,11.19-25,25-25
			C39.88,0.91,51.08,12.1,51.08,25.91z"/>
	</defs>
	<clipPath id="SVGID_2_">
		<use xlink:href="#SVGID_37_"  style="overflow:visible;"/>
	</clipPath>
	<g class="st0">
		<rect x="-11.42" y="0.91" class="st1" width="75" height="50"/>
		<path class="st9" d="M23.94,23.63c-0.85-1.83-0.48-4.37,0.41-5.6l0.2,0.15c-0.84,1.16-1.2,3.59-0.38,5.35
			c0.33,0.71,0.88,1.4,1.43,1.84c-0.16-0.19-0.3-0.4-0.41-0.63c-0.71-1.52-0.08-3.31,1.4-4.08c0.06-0.04,0.23-0.14,0.25-0.15
			c1.87-0.91,2.69-3.12,1.9-5.03c-0.14-0.33-0.36-0.64-0.45-0.83c-0.56-1.21-0.03-2.65,1.19-3.22c0.07-0.03,0.15-0.05,0.22-0.08
			c-1.29-0.16-2.66,0.03-3.99,0.65c-3.75,1.74-5.73,6.15-3.99,9.9c0.8,1.72,2.17,2.98,3.78,3.69C24.89,25.13,24.3,24.42,23.94,23.63
			z M24.8,16.78l0.02-0.87l0.68,0.55l0.83-0.25l-0.31,0.81l0.5,0.72l-0.87-0.04l-0.53,0.69l-0.23-0.84l-0.83-0.29L24.8,16.78z
			 M39.17,21.2c-2.83-3.02-7.63-3.53-10.65-0.7c-1.38,1.29-2.15,2.98-2.32,4.72c0.26-0.71,0.75-1.48,1.37-2.07
			c1.48-1.38,4.01-1.82,5.44-1.36l-0.08,0.24c-1.37-0.44-3.79-0.02-5.2,1.3c-0.57,0.54-1.04,1.26-1.29,1.92
			c0.13-0.21,0.28-0.4,0.47-0.57c1.22-1.15,3.12-1.11,4.31,0.06c0.06,0.04,0.2,0.17,0.22,0.19c1.45,1.49,3.81,1.58,5.38,0.23
			c0.27-0.24,0.5-0.54,0.65-0.68c0.97-0.91,2.51-0.85,3.43,0.13c0.05,0.06,0.09,0.12,0.14,0.18C40.79,23.51,40.17,22.27,39.17,21.2z
			 M34.88,22.39l0.5,0.72l-0.87-0.04l-0.53,0.69l-0.23-0.84l-0.82-0.29l0.73-0.48l0.02-0.87l0.68,0.54l0.84-0.25L34.88,22.39z
			 M20.93,28.78c1.88-0.23,3.51-1.13,4.68-2.44c-0.63,0.43-1.48,0.77-2.34,0.87c-2.01,0.24-4.31-0.91-5.19-2.13l0.2-0.15
			c0.85,1.17,3.04,2.26,4.96,2.03c0.78-0.09,1.58-0.39,2.18-0.78c-0.23,0.08-0.46,0.15-0.71,0.18c-1.67,0.2-3.17-0.96-3.44-2.6
			c-0.02-0.07-0.06-0.26-0.06-0.28c-0.29-2.06-2.13-3.53-4.2-3.37c-0.36,0.03-0.72,0.14-0.93,0.17c-1.32,0.16-2.53-0.8-2.69-2.14
			c-0.01-0.07,0-0.15,0-0.23c-0.56,1.18-0.8,2.54-0.63,4C13.25,26.02,16.82,29.27,20.93,28.78z M16.92,23.5l0.02-0.87l0.68,0.55
			l0.84-0.25l-0.31,0.81l0.49,0.72l-0.87-0.04l-0.53,0.69l-0.23-0.84l-0.82-0.29L16.92,23.5z M26.71,25.77
			c0.76,0.01,1.66,0.23,2.43,0.65c1.77,0.98,2.97,3.25,2.97,4.76l-0.25,0c-0.01-1.44-1.15-3.61-2.84-4.54
			c-0.68-0.38-1.51-0.6-2.21-0.64c0.23,0.06,0.45,0.15,0.67,0.27c1.47,0.81,2.02,2.63,1.28,4.12c-0.02,0.07-0.1,0.24-0.12,0.27
			c-0.97,1.84-0.33,4.11,1.44,5.18c0.31,0.19,0.66,0.3,0.85,0.41c1.16,0.64,1.58,2.12,0.93,3.3c-0.04,0.07-0.09,0.13-0.13,0.19
			c1.14-0.63,2.13-1.6,2.84-2.88c2-3.62,1-8.35-2.62-10.35C30.28,25.6,28.43,25.38,26.71,25.77z M32.98,33.19l-0.87-0.04l-0.53,0.7
			L31.35,33l-0.82-0.29l0.73-0.48l0.02-0.87l0.68,0.54l0.84-0.25l-0.31,0.82L32.98,33.19z M26.37,26.42
			c0.23,0.73,0.29,1.65,0.13,2.51c-0.38,1.99-2.17,3.83-3.6,4.31l-0.08-0.24c1.37-0.45,3.07-2.22,3.43-4.12
			c0.14-0.76,0.1-1.62-0.08-2.29c0.01,0.24,0,0.48-0.05,0.72c-0.32,1.65-1.87,2.73-3.51,2.49c-0.07,0-0.27-0.02-0.29-0.03
			c-2.05-0.35-4.01,0.96-4.48,2.98c-0.08,0.35-0.08,0.73-0.12,0.93c-0.25,1.31-1.53,2.17-2.85,1.92c-0.08-0.02-0.15-0.04-0.22-0.07
			c0.95,0.89,2.18,1.53,3.62,1.81c4.07,0.77,8.25-1.64,9.02-5.71C27.65,29.76,27.27,27.93,26.37,26.42z M22.67,34.03l-0.87-0.04
			l-0.53,0.7l-0.23-0.84l-0.83-0.28l0.73-0.48l0.02-0.87l0.68,0.54l0.83-0.25l-0.3,0.82L22.67,34.03z"/>
	</g>
</g>
</svg>
