<?xml version="1.0" encoding="utf-8"?>
<!-- Generator: Adobe Illustrator 23.0.0, SVG Export Plug-In . SVG Version: 6.00 Build 0)  -->
<svg version="1.1" id="图层_1" xmlns="http://www.w3.org/2000/svg" xmlns:xlink="http://www.w3.org/1999/xlink" x="0px" y="0px"
	 viewBox="0 0 52 52" style="enable-background:new 0 0 52 52;" xml:space="preserve">
<style type="text/css">
	.st0{clip-path:url(#SVGID_2_);}
	.st1{fill:#DE2910;}
	.st2{fill:#FFDC00;}
	.st3{clip-path:url(#SVGID_4_);}
	.st4{fill:#DB0C1B;}
	.st5{fill:#FFCE0D;}
	.st6{clip-path:url(#SVGID_6_);}
	.st7{fill:#0039A6;}
	.st8{fill:#D52B1E;}
	.st9{fill:#FFFFFF;}
	.st10{clip-path:url(#SVGID_8_);}
	.st11{fill:#002395;}
	.st12{fill:#ED2939;}
	.st13{clip-path:url(#SVGID_10_);}
	.st14{fill:#009246;}
	.st15{fill:#CE2B37;}
	.st16{clip-path:url(#SVGID_12_);}
	.st17{fill:#002377;}
	.st18{fill:#C2121F;}
	.st19{clip-path:url(#SVGID_14_);}
	.st20{fill:#000066;}
	.st21{fill:#CC0000;}
	.st22{clip-path:url(#SVGID_16_);}
	.st23{fill:#233CAF;}
	.st24{fill:#EB0000;}
	.st25{clip-path:url(#SVGID_18_);}
	.st26{fill:#00785E;}
	.st27{fill:#FBD116;}
	.st28{clip-path:url(#SVGID_20_);}
	.st29{fill:#CE1126;}
	.st30{fill:#0038A8;}
	.st31{fill:#FCD116;}
	.st32{clip-path:url(#SVGID_22_);fill:#FFFFFF;}
	.st33{clip-path:url(#SVGID_22_);}
	.st34{clip-path:url(#SVGID_22_);fill:#003478;}
	.st35{clip-path:url(#SVGID_22_);fill:#C60C30;}
	.st36{fill:none;}
	.st37{clip-path:url(#SVGID_26_);}
	.st38{fill:#CC0001;}
	.st39{fill:#010066;}
	.st40{fill:#FFCC00;}
	.st41{clip-path:url(#SVGID_28_);}
	.st42{clip-path:url(#SVGID_30_);}
	.st43{clip-path:url(#SVGID_32_);}
	.st44{fill:#EB2837;}
	.st45{clip-path:url(#SVGID_34_);}
	.st46{fill:#128807;}
	.st47{fill:#FF9933;}
	.st48{fill:#000088;}
	.st49{clip-path:url(#SVGID_36_);}
	.st50{clip-path:url(#SVGID_38_);}
	.st51{clip-path:url(#SVGID_40_);}
	.st52{fill:#EB1E23;}
	.st53{fill:#FFEB00;}
	.st54{clip-path:url(#SVGID_42_);fill:#FE0000;}
	.st55{clip-path:url(#SVGID_42_);fill:#000095;}
	.st56{clip-path:url(#SVGID_42_);fill:#FFFFFF;}
</style>
<g>
	<defs>
		<path id="SVGID_17_" d="M50.7,26.28c0,13.81-11.19,25-25,25c-13.81,0-25-11.19-25-25c0-13.81,11.19-25,25-25
			C39.51,1.28,50.7,12.47,50.7,26.28z"/>
	</defs>
	<clipPath id="SVGID_2_">
		<use xlink:href="#SVGID_17_"  style="overflow:visible;"/>
	</clipPath>
	<g class="st0">
		<g>
			<rect x="-11.8" y="1.28" class="st26" width="75" height="50"/>
		</g>
		<g>
			<path class="st9" d="M19,38.76h13.26c0.49-0.24,0.96-0.5,1.41-0.79H17.59C18.05,38.25,18.52,38.52,19,38.76z M25.63,40.32
				c1.99,0,3.88-0.39,5.61-1.1H20.01C21.75,39.92,23.64,40.32,25.63,40.32z M16.61,37.28h18.03c0.25-0.19,0.51-0.39,0.75-0.6H15.86
				C16.11,36.89,16.36,37.09,16.61,37.28z M14.92,35.81h21.41c0.13-0.13,0.24-0.27,0.37-0.4H14.56
				C14.68,35.54,14.79,35.68,14.92,35.81z M25.99,31.62l-0.28-0.23l-0.28,0.23c-1.2,1.01-2.72,2.08-5.5,2.08l-6.76-0.02
				c0.2,0.3,0.43,0.59,0.65,0.88l6.11,0.02c2.74,0,4.41-0.96,5.78-2.06c1.37,1.1,3.04,2.06,5.78,2.06l5.95-0.02
				c0.22-0.29,0.45-0.57,0.65-0.88l-6.6,0.02C28.71,33.69,27.2,32.62,25.99,31.62z M13.04,26.78c0.88,2.66,4.94,7,10.65,4.76
				c-5.39,2.26-8.59-0.85-9.39-1.55c-0.27,0.11-0.81,0.17-1.06,0.18c1.3,1.97,7.51,5.25,12.39,0.39c-0.03-0.04-0.06-0.08-0.09-0.12
				c0,0,0,0,0,0.01c0.03,0.04,0.06,0.08,0.09,0.11c0.03-0.03,0.06-0.06,0.09-0.09c-0.03,0.03-0.05,0.06-0.08,0.09
				c4.88,4.86,11.09,1.59,12.39-0.39c-0.25-0.02-0.79-0.07-1.06-0.18c-0.8,0.7-4,3.81-9.39,1.55c5.71,2.24,9.77-2.1,10.65-4.76
				c-3.5-1.39-7.19-0.88-10.39,1.63c3.73-3.22,6.08-3.05,7.35-3.1c0.16-0.24,0.52-0.78,0.72-0.93c-2.47-0.06-4.83,0.46-7.39,2.81
				c2.67-4.32,1.1-7.87,0.28-8.9c-0.18,0.63-0.56,1.08-0.71,1.31c0.53,1.4,2.03,4.64-1.36,9.51c-0.03,0.03-0.06,0.07-0.08,0.1
				c3.6-5.31,1.21-10.04-1.03-11.92c-2.22,1.87-4.6,6.55-1.09,11.82c-0.04-0.04-0.08-0.09-0.11-0.14c-3.26-4.79-1.79-7.99-1.26-9.37
				c-0.15-0.23-0.53-0.68-0.71-1.31c-0.82,1.03-2.38,4.57,0.26,8.87c-2.54-2.32-4.9-2.83-7.35-2.78c0.2,0.16,0.56,0.69,0.72,0.93
				c1.27,0.05,3.63-0.12,7.36,3.1C20.24,25.9,16.54,25.39,13.04,26.78z"/>
			<path class="st27" d="M19.99,14.11l-1.12,0.75l-1.09-0.81l0.37,1.3l-1.11,0.78l1.36,0.05l0.4,1.3l0.47-1.27l1.36,0.02l-1.07-0.84
				L19.99,14.11z M26.29,12.59l-0.64-1.88l-0.63,1.88l-1.99,0.02l1.6,1.19l-0.59,1.9l1.62-1.15l1.62,1.15l-0.59-1.9l1.6-1.19
				L26.29,12.59z M33.48,14.06l-1.08,0.81l-1.13-0.75l0.44,1.28l-1.06,0.84L32,16.21l0.47,1.27l0.4-1.3l1.35-0.05l-1.11-0.78
				L33.48,14.06z M15.42,19.76l-0.28-1.33l-0.58,1.22l-1.35-0.15l0.98,0.93l-0.56,1.24l1.19-0.65l1,0.91l-0.25-1.33l1.18-0.67
				L15.42,19.76z M38.05,19.51l-1.35,0.15l-0.58-1.22l-0.28,1.33l-1.34,0.18l1.17,0.67l-0.24,1.33l1-0.91l1.19,0.65l-0.56-1.24
				L38.05,19.51z"/>
		</g>
	</g>
</g>
</svg>
