<?xml version="1.0" encoding="utf-8"?>
<!-- Generator: Adobe Illustrator 23.0.0, SVG Export Plug-In . SVG Version: 6.00 Build 0)  -->
<svg version="1.1" id="图层_1" xmlns="http://www.w3.org/2000/svg" xmlns:xlink="http://www.w3.org/1999/xlink" x="0px" y="0px"
	 viewBox="0 0 52 52" style="enable-background:new 0 0 52 52;" xml:space="preserve">
<style type="text/css">
	.st0{clip-path:url(#SVGID_2_);}
	.st1{fill:#DE2910;}
	.st2{fill:#FFDC00;}
	.st3{clip-path:url(#SVGID_4_);}
	.st4{fill:#DB0C1B;}
	.st5{fill:#FFCE0D;}
	.st6{clip-path:url(#SVGID_6_);}
	.st7{fill:#0039A6;}
	.st8{fill:#D52B1E;}
	.st9{fill:#FFFFFF;}
	.st10{clip-path:url(#SVGID_8_);}
	.st11{fill:#002395;}
	.st12{fill:#ED2939;}
	.st13{clip-path:url(#SVGID_10_);}
	.st14{fill:#009246;}
	.st15{fill:#CE2B37;}
	.st16{clip-path:url(#SVGID_12_);}
	.st17{fill:#002377;}
	.st18{fill:#C2121F;}
	.st19{clip-path:url(#SVGID_14_);}
	.st20{fill:#000066;}
	.st21{fill:#CC0000;}
	.st22{clip-path:url(#SVGID_16_);}
	.st23{fill:#233CAF;}
	.st24{fill:#EB0000;}
	.st25{clip-path:url(#SVGID_18_);}
	.st26{fill:#00785E;}
	.st27{fill:#FBD116;}
	.st28{clip-path:url(#SVGID_20_);}
	.st29{fill:#CE1126;}
	.st30{fill:#0038A8;}
	.st31{fill:#FCD116;}
	.st32{clip-path:url(#SVGID_22_);fill:#FFFFFF;}
	.st33{clip-path:url(#SVGID_22_);}
	.st34{clip-path:url(#SVGID_22_);fill:#003478;}
	.st35{clip-path:url(#SVGID_22_);fill:#C60C30;}
	.st36{fill:none;}
	.st37{clip-path:url(#SVGID_26_);}
	.st38{fill:#CC0001;}
	.st39{fill:#010066;}
	.st40{fill:#FFCC00;}
	.st41{clip-path:url(#SVGID_28_);}
	.st42{clip-path:url(#SVGID_30_);}
	.st43{clip-path:url(#SVGID_32_);}
	.st44{fill:#EB2837;}
	.st45{clip-path:url(#SVGID_34_);}
	.st46{fill:#128807;}
	.st47{fill:#FF9933;}
	.st48{fill:#000088;}
	.st49{clip-path:url(#SVGID_36_);}
	.st50{clip-path:url(#SVGID_38_);}
	.st51{clip-path:url(#SVGID_40_);}
	.st52{fill:#EB1E23;}
	.st53{fill:#FFEB00;}
	.st54{clip-path:url(#SVGID_42_);fill:#FE0000;}
	.st55{clip-path:url(#SVGID_42_);fill:#000095;}
	.st56{clip-path:url(#SVGID_42_);fill:#FFFFFF;}
</style>
<g>
	<defs>
		<path id="SVGID_1_" d="M50.63,26.14c0,13.81-11.19,25-25,25c-13.81,0-25-11.19-25-25c0-13.81,11.19-25,25-25
			C39.44,1.14,50.63,12.33,50.63,26.14z"/>
	</defs>
	<clipPath id="SVGID_2_">
		<use xlink:href="#SVGID_1_"  style="overflow:visible;"/>
	</clipPath>
	<g class="st0">
		<rect x="0.63" y="1.14" class="st1" width="50" height="50"/>
		<g>
			<polygon class="st2" points="19.99,17.46 21.69,22.49 27.2,22.49 22.73,25.76 24.38,30.74 19.99,27.77 15.6,30.74 17.25,25.76 
				12.82,22.49 18.33,22.49 			"/>
			<polygon class="st2" points="37.66,27.48 38.21,29.11 39.99,29.11 38.55,30.17 39.08,31.78 37.66,30.82 36.23,31.78 36.77,30.17 
				35.34,29.11 37.12,29.11 			"/>
			<polygon class="st2" points="36.46,20.06 37.68,21.28 39.28,20.49 38.45,22.08 39.64,23.29 37.95,23.06 37.09,24.55 36.86,22.87 
				35.1,22.55 36.7,21.76 			"/>
			<polygon class="st2" points="30.64,15.81 32.26,16.4 33.37,15 33.29,16.79 34.89,17.38 33.25,17.9 33.11,19.6 32.19,18.18 
				30.46,18.64 31.58,17.25 			"/>
			<polygon class="st2" points="30.64,33.48 32.26,34.07 33.37,32.67 33.29,34.46 34.89,35.06 33.25,35.57 33.11,37.28 32.19,35.85 
				30.46,36.31 31.58,34.92 			"/>
		</g>
	</g>
</g>
</svg>
