<?xml version="1.0" encoding="utf-8"?>
<!-- Generator: Adobe Illustrator 23.0.0, SVG Export Plug-In . SVG Version: 6.00 Build 0)  -->
<svg version="1.1" id="图层_1" xmlns="http://www.w3.org/2000/svg" xmlns:xlink="http://www.w3.org/1999/xlink" x="0px" y="0px"
	 viewBox="0 0 52 52" style="enable-background:new 0 0 52 52;" xml:space="preserve">
<style type="text/css">
	.st0{clip-path:url(#SVGID_2_);}
	.st1{fill:#DE2910;}
	.st2{fill:#FFDC00;}
	.st3{clip-path:url(#SVGID_4_);}
	.st4{fill:#DB0C1B;}
	.st5{fill:#FFCE0D;}
	.st6{clip-path:url(#SVGID_6_);}
	.st7{fill:#0039A6;}
	.st8{fill:#D52B1E;}
	.st9{fill:#FFFFFF;}
	.st10{clip-path:url(#SVGID_8_);}
	.st11{fill:#002395;}
	.st12{fill:#ED2939;}
	.st13{clip-path:url(#SVGID_10_);}
	.st14{fill:#009246;}
	.st15{fill:#CE2B37;}
	.st16{clip-path:url(#SVGID_12_);}
	.st17{fill:#002377;}
	.st18{fill:#C2121F;}
	.st19{clip-path:url(#SVGID_14_);}
	.st20{fill:#000066;}
	.st21{fill:#CC0000;}
	.st22{clip-path:url(#SVGID_16_);}
	.st23{fill:#233CAF;}
	.st24{fill:#EB0000;}
	.st25{clip-path:url(#SVGID_18_);}
	.st26{fill:#00785E;}
	.st27{fill:#FBD116;}
	.st28{clip-path:url(#SVGID_20_);}
	.st29{fill:#CE1126;}
	.st30{fill:#0038A8;}
	.st31{fill:#FCD116;}
	.st32{clip-path:url(#SVGID_22_);fill:#FFFFFF;}
	.st33{clip-path:url(#SVGID_22_);}
	.st34{clip-path:url(#SVGID_22_);fill:#003478;}
	.st35{clip-path:url(#SVGID_22_);fill:#C60C30;}
	.st36{fill:none;}
	.st37{clip-path:url(#SVGID_26_);}
	.st38{fill:#CC0001;}
	.st39{fill:#010066;}
	.st40{fill:#FFCC00;}
	.st41{clip-path:url(#SVGID_28_);}
	.st42{clip-path:url(#SVGID_30_);}
	.st43{clip-path:url(#SVGID_32_);}
	.st44{fill:#EB2837;}
	.st45{clip-path:url(#SVGID_34_);}
	.st46{fill:#128807;}
	.st47{fill:#FF9933;}
	.st48{fill:#000088;}
	.st49{clip-path:url(#SVGID_36_);}
	.st50{clip-path:url(#SVGID_38_);}
	.st51{clip-path:url(#SVGID_40_);}
	.st52{fill:#EB1E23;}
	.st53{fill:#FFEB00;}
	.st54{clip-path:url(#SVGID_42_);fill:#FE0000;}
	.st55{clip-path:url(#SVGID_42_);fill:#000095;}
	.st56{clip-path:url(#SVGID_42_);fill:#FFFFFF;}
</style>
<g>
	<defs>
		<path id="SVGID_41_" d="M51.19,25.78c0,13.81-11.19,25-25,25c-13.81,0-25-11.19-25-25c0-13.81,11.19-25,25-25
			C40,0.78,51.19,11.97,51.19,25.78z"/>
	</defs>
	<clipPath id="SVGID_2_">
		<use xlink:href="#SVGID_41_"  style="overflow:visible;"/>
	</clipPath>
	<rect x="-11.31" y="0.78" style="clip-path:url(#SVGID_2_);fill:#FE0000;" width="75" height="50"/>
	<rect x="-11.31" y="0.78" style="clip-path:url(#SVGID_2_);fill:#000095;" width="37.52" height="25"/>
	<path style="clip-path:url(#SVGID_2_);fill:#FFFFFF;" d="M19.66,14c0,2.59-2.1,4.69-4.69,4.69c-2.59,0-4.69-2.1-4.69-4.69
		c0-2.59,2.1-4.69,4.69-4.69C17.56,9.32,19.66,11.42,19.66,14z M13.41,8.96l-3.04-2.98l1.04,4.14C11.98,9.59,12.65,9.19,13.41,8.96z
		 M16.13,8.85l-1.15-4.1l-1.16,4.1c0.37-0.08,0.76-0.13,1.16-0.13C15.37,8.72,15.76,8.77,16.13,8.85z M24.23,14.01l-4.1-1.16
		c0.08,0.37,0.13,0.76,0.13,1.16s-0.05,0.78-0.13,1.15L24.23,14.01z M19.58,5.98l-3.04,2.98c0.75,0.23,1.43,0.63,2,1.15L19.58,5.98z
		 M11.08,10.44L6.95,9.4l2.98,3.04C10.16,11.69,10.56,11.01,11.08,10.44z M20.02,12.44L23,9.4l-4.14,1.04
		C19.38,11.01,19.78,11.68,20.02,12.44z M9.93,15.57l-2.98,3.04l4.14-1.04C10.56,17,10.16,16.32,9.93,15.57z M18.86,17.57L23,18.61
		l-2.98-3.04C19.79,16.32,19.38,17,18.86,17.57z M16.54,19.05l3.04,2.98l-1.04-4.14C17.97,18.41,17.29,18.82,16.54,19.05z M9.69,14
		c0-0.4,0.05-0.78,0.13-1.16L5.72,14l4.1,1.16C9.74,14.79,9.69,14.4,9.69,14z M10.37,22.03l3.04-2.98c-0.75-0.23-1.43-0.64-2-1.16
		L10.37,22.03z M13.82,19.15l1.15,4.1l1.16-4.1c-0.37,0.08-0.76,0.13-1.15,0.13C14.58,19.29,14.19,19.24,13.82,19.15z"/>
</g>
</svg>
