<?xml version="1.0" encoding="utf-8"?>
<!-- Generator: Adobe Illustrator 23.0.0, SVG Export Plug-In . SVG Version: 6.00 Build 0)  -->
<svg version="1.1" id="图层_1" xmlns="http://www.w3.org/2000/svg" xmlns:xlink="http://www.w3.org/1999/xlink" x="0px" y="0px"
	 viewBox="0 0 52 52" style="enable-background:new 0 0 52 52;" xml:space="preserve">
<style type="text/css">
	.st0{clip-path:url(#SVGID_2_);}
	.st1{fill:#DE2910;}
	.st2{fill:#FFDC00;}
	.st3{clip-path:url(#SVGID_4_);}
	.st4{fill:#DB0C1B;}
	.st5{fill:#FFCE0D;}
	.st6{clip-path:url(#SVGID_6_);}
	.st7{fill:#0039A6;}
	.st8{fill:#D52B1E;}
	.st9{fill:#FFFFFF;}
	.st10{clip-path:url(#SVGID_8_);}
	.st11{fill:#002395;}
	.st12{fill:#ED2939;}
	.st13{clip-path:url(#SVGID_10_);}
	.st14{fill:#009246;}
	.st15{fill:#CE2B37;}
	.st16{clip-path:url(#SVGID_12_);}
	.st17{fill:#002377;}
	.st18{fill:#C2121F;}
	.st19{clip-path:url(#SVGID_14_);}
	.st20{fill:#000066;}
	.st21{fill:#CC0000;}
	.st22{clip-path:url(#SVGID_16_);}
	.st23{fill:#233CAF;}
	.st24{fill:#EB0000;}
	.st25{clip-path:url(#SVGID_18_);}
	.st26{fill:#00785E;}
	.st27{fill:#FBD116;}
	.st28{clip-path:url(#SVGID_20_);}
	.st29{fill:#CE1126;}
	.st30{fill:#0038A8;}
	.st31{fill:#FCD116;}
	.st32{clip-path:url(#SVGID_22_);fill:#FFFFFF;}
	.st33{clip-path:url(#SVGID_22_);}
	.st34{clip-path:url(#SVGID_22_);fill:#003478;}
	.st35{clip-path:url(#SVGID_22_);fill:#C60C30;}
	.st36{fill:none;}
	.st37{clip-path:url(#SVGID_26_);}
	.st38{fill:#CC0001;}
	.st39{fill:#010066;}
	.st40{fill:#FFCC00;}
	.st41{clip-path:url(#SVGID_28_);}
	.st42{clip-path:url(#SVGID_30_);}
	.st43{clip-path:url(#SVGID_32_);}
	.st44{fill:#EB2837;}
	.st45{clip-path:url(#SVGID_34_);}
	.st46{fill:#128807;}
	.st47{fill:#FF9933;}
	.st48{fill:#000088;}
	.st49{clip-path:url(#SVGID_36_);}
	.st50{clip-path:url(#SVGID_38_);}
	.st51{clip-path:url(#SVGID_40_);}
	.st52{fill:#EB1E23;}
	.st53{fill:#FFEB00;}
	.st54{clip-path:url(#SVGID_42_);fill:#FE0000;}
	.st55{clip-path:url(#SVGID_42_);fill:#000095;}
	.st56{clip-path:url(#SVGID_42_);fill:#FFFFFF;}
</style>
<g>
	<defs>
		<circle id="SVGID_31_" cx="-46.3" cy="25.97" r="25"/>
	</defs>
	<clipPath id="SVGID_2_">
		<use xlink:href="#SVGID_31_"  style="overflow:visible;"/>
	</clipPath>
	<g class="st0">
		<rect x="-71.84" y="0.97" class="st44" width="75" height="25"/>
		<rect x="-71.84" y="25.97" class="st9" width="75" height="25"/>
	</g>
</g>
<g>
	<defs>
		<path id="SVGID_33_" d="M50.39,26.11c0,13.81-11.19,25-25,25s-25-11.19-25-25c0-13.81,11.19-25,25-25S50.39,12.3,50.39,26.11z"/>
	</defs>
	<clipPath id="SVGID_4_">
		<use xlink:href="#SVGID_33_"  style="overflow:visible;"/>
	</clipPath>
	<g class="st3">
		<g>
			<rect x="-2.11" y="16.94" class="st9" width="55" height="18.33"/>
			<rect x="-2.11" y="35.27" class="st46" width="55" height="18.33"/>
			<rect x="-2.11" y="-1.39" class="st47" width="55" height="18.33"/>
		</g>
		<g>
			
				<ellipse transform="matrix(0.9734 -0.2289 0.2289 0.9734 -5.3024 6.5055)" class="st48" cx="25.39" cy="26.11" rx="7.34" ry="7.34"/>
			<g>
				<path class="st9" d="M24.25,26.68c-0.03-0.06-0.05-0.12-0.07-0.18l-1.12,0.46l-3.86,0.81c0.05,0.18,0.08,0.36,0.14,0.54
					c0,0,0-0.01,0.01-0.01c0.14-0.08,0.33-0.03,0.41,0.11c0.08,0.15,0.03,0.33-0.11,0.41c-0.03,0.02-0.06,0.01-0.09,0.01
					c0.08,0.17,0.18,0.32,0.27,0.47l3.31-2.15L24.25,26.68z"/>
				<path class="st9" d="M24.54,25.16c0.05-0.05,0.11-0.08,0.17-0.11l-0.74-0.97l-1.77-3.52c-0.16,0.09-0.32,0.16-0.47,0.27
					c0.02,0.02,0.05,0.03,0.07,0.05c0.08,0.14,0.03,0.33-0.11,0.41c-0.15,0.08-0.33,0.03-0.41-0.11c0,0,0,0,0,0
					c-0.15,0.12-0.27,0.27-0.41,0.41l2.94,2.63L24.54,25.16z"/>
				<path class="st9" d="M24.18,25.71c0.02-0.06,0.04-0.12,0.07-0.18l-1.11-0.47l-3.3-2.16c-0.1,0.17-0.2,0.33-0.29,0.5
					c0.03,0.01,0.06-0.01,0.09,0.01c0.15,0.08,0.19,0.27,0.11,0.41c-0.08,0.15-0.27,0.2-0.41,0.11c0,0,0-0.01-0.01-0.01
					c-0.06,0.16-0.09,0.34-0.13,0.5l3.86,0.82L24.18,25.71z"/>
				<path class="st9" d="M24.15,26.36c-0.01-0.06-0.04-0.13-0.04-0.2l-1.2,0.15l-3.97-0.22l3.97-0.22l1.2,0.15
					c0-0.07,0.03-0.13,0.04-0.2l-1.21-0.17l-3.74-1.24c-0.05,0.19-0.12,0.37-0.15,0.56c0.01,0,0.01-0.01,0.01-0.01
					c0.17,0,0.3,0.14,0.3,0.3c0,0.17-0.13,0.3-0.3,0.3c-0.03,0-0.06-0.03-0.09-0.04c-0.02,0.18-0.03,0.36-0.03,0.55
					c0,0.19,0.01,0.37,0.03,0.55c0.03-0.01,0.05-0.04,0.09-0.04c0.17,0,0.3,0.13,0.3,0.3c0,0.17-0.13,0.3-0.3,0.3
					c-0.01,0-0.01-0.01-0.01-0.01c0.03,0.18,0.09,0.36,0.14,0.54l3.75-1.23L24.15,26.36z"/>
				<path class="st9" d="M24.82,24.97c0.06-0.03,0.12-0.05,0.18-0.07l-0.46-1.12l-0.81-3.86c-0.18,0.05-0.36,0.08-0.53,0.14
					c0.08,0.15,0.03,0.33-0.11,0.41c-0.14,0.08-0.33,0.03-0.41-0.11c-0.01-0.03,0-0.05-0.01-0.08c-0.16,0.08-0.31,0.18-0.47,0.27
					l2.15,3.31L24.82,24.97z"/>
				<path class="st9" d="M24.33,25.42c0.04-0.06,0.07-0.12,0.11-0.16l-0.95-0.74l-2.63-2.94c-0.14,0.14-0.29,0.27-0.42,0.42
					c0.01,0,0.01,0,0.02,0c0.14,0.08,0.19,0.27,0.11,0.41c-0.08,0.15-0.27,0.2-0.41,0.11c-0.03-0.02-0.04-0.05-0.06-0.08
					c-0.1,0.14-0.17,0.3-0.25,0.45l3.52,1.78L24.33,25.42z"/>
				<path class="st9" d="M25.13,24.87c0.06-0.01,0.13-0.04,0.19-0.04l-0.15-1.2l0.22-3.97c0,0,0,0,0,0c-0.18,0-0.36,0.01-0.54,0.03
					c0.01,0.03,0.03,0.05,0.03,0.08c0,0.17-0.14,0.3-0.3,0.3c-0.17,0-0.3-0.14-0.3-0.3c-0.18,0.03-0.36,0.09-0.53,0.14l1.23,3.75
					L25.13,24.87z"/>
				<path class="st9" d="M26.08,25.05c0.06,0.04,0.11,0.07,0.16,0.11l0.74-0.95l2.94-2.63c-0.14-0.14-0.26-0.29-0.41-0.42
					c0,0,0,0,0,0c-0.08,0.15-0.27,0.2-0.41,0.11c-0.14-0.08-0.2-0.27-0.11-0.41c0.02-0.03,0.05-0.03,0.07-0.05
					c-0.14-0.09-0.29-0.16-0.43-0.25l-1.79,3.52L26.08,25.05z"/>
				<path class="st9" d="M26.52,25.53c0.03,0.06,0.05,0.12,0.07,0.18l1.12-0.46l3.86-0.81c-0.05-0.18-0.08-0.36-0.14-0.53
					c-0.14,0.08-0.33,0.03-0.41-0.11c-0.08-0.15-0.03-0.33,0.11-0.41c0.03-0.02,0.05,0,0.08-0.01c-0.08-0.16-0.18-0.31-0.27-0.47
					l-3.31,2.15L26.52,25.53z"/>
				<path class="st9" d="M25.79,24.9c0.06,0.02,0.12,0.05,0.18,0.08l0.47-1.11l2.17-3.3c-0.17-0.1-0.33-0.21-0.51-0.29
					c-0.01,0.03,0,0.06-0.01,0.08c-0.08,0.15-0.27,0.2-0.41,0.11c-0.15-0.08-0.2-0.27-0.11-0.41c-0.16-0.06-0.33-0.09-0.5-0.13
					l-0.81,3.86L25.79,24.9z"/>
				<path class="st9" d="M25.46,24.83c0.07,0,0.13,0.03,0.2,0.04l0.17-1.21l1.24-3.74c-0.18-0.05-0.36-0.11-0.55-0.15
					c0,0.17-0.14,0.3-0.3,0.3c-0.17,0-0.3-0.14-0.3-0.3c0-0.03,0.02-0.05,0.03-0.08c-0.18-0.02-0.36-0.03-0.54-0.03l0.22,3.97
					L25.46,24.83z"/>
				<path class="st9" d="M26.34,25.26c0.04,0.05,0.08,0.11,0.11,0.17l0.97-0.74l3.52-1.77c-0.09-0.16-0.17-0.32-0.27-0.47
					c-0.02,0.02-0.02,0.05-0.05,0.07c-0.14,0.08-0.33,0.03-0.41-0.11c-0.08-0.15-0.03-0.33,0.11-0.41c0,0,0,0,0,0
					c-0.12-0.15-0.27-0.27-0.41-0.41l-2.63,2.94L26.34,25.26z"/>
				<path class="st9" d="M26.59,26.5c-0.02,0.06-0.04,0.12-0.07,0.18l1.11,0.47l3.3,2.16c0.09-0.17,0.2-0.32,0.28-0.5
					c-0.03-0.01-0.05,0-0.08-0.01c-0.15-0.08-0.2-0.27-0.11-0.41c0.08-0.15,0.27-0.2,0.41-0.11c0.06-0.16,0.09-0.33,0.13-0.5
					l-3.86-0.81L26.59,26.5z"/>
				<path class="st9" d="M26.24,27.05c-0.05,0.04-0.11,0.08-0.17,0.11l0.74,0.97l1.77,3.52c0.16-0.09,0.33-0.17,0.48-0.27
					c-0.03-0.02-0.06-0.03-0.08-0.06c-0.08-0.14-0.03-0.33,0.11-0.41c0.15-0.08,0.33-0.03,0.41,0.11c0,0.01,0,0.01,0,0.02
					c0.15-0.12,0.27-0.27,0.41-0.41l-2.94-2.63L26.24,27.05z"/>
				<path class="st9" d="M26.44,26.8c-0.04,0.05-0.07,0.12-0.11,0.16l0.95,0.74l2.63,2.94c0.14-0.14,0.29-0.27,0.42-0.42
					c0,0,0,0,0,0c-0.15-0.08-0.2-0.27-0.11-0.41c0.08-0.15,0.27-0.2,0.41-0.11c0.03,0.02,0.03,0.05,0.05,0.07
					c0.1-0.14,0.17-0.3,0.25-0.45l-3.52-1.78L26.44,26.8z"/>
				<path class="st9" d="M26.66,26.18c0,0.07-0.03,0.13-0.04,0.2l1.21,0.17l3.74,1.24c0.05-0.18,0.11-0.36,0.15-0.55
					c-0.17,0-0.3-0.14-0.3-0.3c0-0.17,0.14-0.3,0.3-0.3c0.03,0,0.05,0.02,0.08,0.03c0.02-0.18,0.03-0.36,0.03-0.54l-3.97,0.22
					L26.66,26.18z"/>
				<path class="st9" d="M31.79,25.56c-0.03,0.01-0.05,0.03-0.08,0.03c-0.17,0-0.3-0.14-0.3-0.3c0-0.17,0.14-0.3,0.3-0.3
					c-0.03-0.18-0.09-0.36-0.14-0.53l-3.75,1.23l-1.21,0.16c0.01,0.06,0.04,0.13,0.04,0.19l1.2-0.15l3.97,0.22c0,0,0,0,0,0
					C31.82,25.92,31.81,25.74,31.79,25.56z"/>
				<path class="st9" d="M24.99,27.31c-0.06-0.02-0.12-0.05-0.18-0.08l-0.47,1.11l-2.17,3.3c0.17,0.1,0.34,0.21,0.52,0.29
					c0.01-0.03-0.01-0.06,0.01-0.09c0.08-0.15,0.27-0.19,0.41-0.11c0.15,0.08,0.2,0.27,0.11,0.41c0,0-0.01,0-0.01,0.01
					c0.16,0.06,0.34,0.09,0.5,0.13l0.81-3.86L24.99,27.31z"/>
				<path class="st9" d="M24.44,26.95c-0.04-0.05-0.08-0.11-0.11-0.17l-0.97,0.74l-3.52,1.77c0.09,0.16,0.17,0.33,0.27,0.48
					c0.02-0.02,0.03-0.06,0.06-0.08c0.14-0.08,0.33-0.03,0.41,0.11c0.08,0.15,0.03,0.33-0.11,0.41c-0.01,0-0.01,0-0.02,0
					c0.12,0.15,0.27,0.27,0.41,0.41l2.63-2.94L24.44,26.95z"/>
				<path class="st9" d="M24.69,27.16c-0.05-0.04-0.11-0.07-0.16-0.11L23.8,28l-2.94,2.63c0.14,0.14,0.27,0.29,0.42,0.42
					c0-0.01,0-0.02,0-0.02c0.08-0.14,0.27-0.19,0.41-0.11c0.15,0.08,0.2,0.27,0.11,0.41c-0.02,0.03-0.05,0.04-0.08,0.06
					c0.14,0.09,0.29,0.16,0.44,0.25l1.79-3.52L24.69,27.16z"/>
				<path class="st9" d="M25.32,27.38c-0.07,0-0.13-0.02-0.2-0.04l-0.17,1.21l-1.23,3.74c0.19,0.05,0.37,0.11,0.56,0.15
					c0-0.01-0.01-0.01-0.01-0.01c0-0.17,0.14-0.3,0.3-0.3c0.17,0,0.3,0.13,0.3,0.3c0,0.03-0.03,0.06-0.04,0.09
					c0.18,0.02,0.36,0.03,0.54,0.03l-0.22-3.97L25.32,27.38z"/>
				<path class="st9" d="M25.64,27.34c-0.06,0.01-0.13,0.04-0.19,0.04l0.15,1.2l-0.22,3.97c0,0,0,0,0,0c0.19,0,0.37-0.01,0.55-0.03
					c-0.01-0.03-0.04-0.05-0.04-0.09c0-0.17,0.14-0.3,0.3-0.3c0.17,0,0.3,0.13,0.3,0.3c0,0-0.01,0.01-0.01,0.01
					c0.18-0.03,0.36-0.1,0.54-0.14l-1.23-3.75L25.64,27.34z"/>
				<path class="st9" d="M25.96,27.24c-0.06,0.03-0.12,0.05-0.18,0.07l0.46,1.12l0.81,3.86c0.18-0.05,0.36-0.08,0.54-0.14
					c0,0-0.01,0-0.01-0.01c-0.08-0.15-0.03-0.33,0.11-0.41c0.15-0.08,0.33-0.03,0.41,0.11c0.02,0.03,0.01,0.06,0.01,0.09
					c0.16-0.08,0.31-0.18,0.47-0.27l-2.15-3.31L25.96,27.24z"/>
			</g>
		</g>
	</g>
</g>
</svg>
